HIERARCHY
ROOT Hips
{
    OFFSET 0.000000 0.000000 0.000000
    CHANNELS 6 Xposition Yposition Zposition Zrotation Xrotation Yrotation
    JOINT Spine
    {
        OFFSET -0.000000 8.349382 0.000000
        CHANNELS 3 Zrotation Xrotation Yrotation
        JOINT Spine1
        {
            OFFSET -0.000000 23.269058 0.000000
            CHANNELS 3 Zrotation Xrotation Yrotation
            JOINT Neck
            {
                OFFSET -0.000000 23.173496 2.106681
                CHANNELS 3 Zrotation Xrotation Yrotation
                JOINT Head
                {
                    OFFSET -0.000000 14.255042 -2.036435
                    CHANNELS 3 Zrotation Xrotation Yrotation
                    End Site
                    {
                        OFFSET -0.000000 25.455433 0.000000
                    }
                }
            }
            JOINT LeftShoulder
            {
                OFFSET 3.917082 21.531742 0.000256
                CHANNELS 3 Zrotation Xrotation Yrotation
                JOINT LeftArm
                {
                    OFFSET 10.728225 0.000000 0.000000
                    CHANNELS 3 Zrotation Xrotation Yrotation
                    JOINT LeftForeArm
                    {
                        OFFSET 30.046112 0.000000 0.000000
                        CHANNELS 3 Zrotation Xrotation Yrotation
                        JOINT LeftHand
                        {
                            OFFSET 29.023712 0.000000 0.000000
                            CHANNELS 3 Zrotation Xrotation Yrotation
                            End Site
                            {
                                OFFSET 15.273261 0.000000 0.000000
                            }
                        }
                    }
                }
            }
            JOINT RightShoulder
            {
                OFFSET -3.920664 21.531742 0.000256
                CHANNELS 3 Zrotation Xrotation Yrotation
                JOINT RightArm
                {
                    OFFSET -10.728225 0.000000 0.000000
                    CHANNELS 3 Zrotation Xrotation Yrotation
                    JOINT RightForeArm
                    {
                        OFFSET -30.046112 0.000000 0.000000
                        CHANNELS 3 Zrotation Xrotation Yrotation
                        JOINT RightHand
                        {
                            OFFSET -29.023712 0.000000 0.000000
                            CHANNELS 3 Zrotation Xrotation Yrotation
                            End Site
                            {
                                OFFSET -15.273261 0.000000 0.000000
                            }
                        }
                    }
                }
            }
        }
    }
    JOINT LeftUpLeg
    {
        OFFSET 10.182174 0.000000 0.000000
        CHANNELS 3 Zrotation Xrotation Yrotation
        JOINT LeftLeg
        {
            OFFSET -0.000000 -49.689274 0.000000
            CHANNELS 3 Zrotation Xrotation Yrotation
            JOINT LeftFoot
            {
                OFFSET -0.000000 -39.155319 0.000000
                CHANNELS 3 Zrotation Xrotation Yrotation
                JOINT LeftToeBase
                {
                    OFFSET -0.000000 -6.618412 15.273261
                    CHANNELS 3 Zrotation Xrotation Yrotation
                    End Site
                    {
                        OFFSET -0.000000 0.000000 4.072869
                    }
                }
            }
        }
    }
    JOINT RightUpLeg
    {
        OFFSET -10.182174 0.000000 0.000000
        CHANNELS 3 Zrotation Xrotation Yrotation
        JOINT RightLeg
        {
            OFFSET -0.000000 -49.689274 0.000000
            CHANNELS 3 Zrotation Xrotation Yrotation
            JOINT RightFoot
            {
                OFFSET -0.000000 -39.155319 0.000000
                CHANNELS 3 Zrotation Xrotation Yrotation
                JOINT RightToeBase
                {
                    OFFSET -0.000000 -6.618412 15.273261
                    CHANNELS 3 Zrotation Xrotation Yrotation
                    End Site
                    {
                        OFFSET -0.000000 0.000000 4.072869
                    }
                }
            }
        }
    }
}
MOTION
Frames:    14
Frame Time:    0.008333
13.181752    97.972191    27.568024    -0.842545    0.923644    94.714592    0.097539    -1.483081    0.662063    1.138774    3.157855    0.629412    5.446095    9.647407    12.734463    -6.482257    -3.184678    11.831859    15.717920    -3.226114    -17.573801    -13.902902    -0.571719    7.966482    6.346044    -6.931221    0.046129    0.912823    -6.906562    3.439057    -16.315355    3.212806    -21.268147    17.656338    -3.796708    3.110176    -6.719852    -2.513860    5.074566    -5.258013    -2.368720    3.327810    1.555657    5.237932    -5.254247    -5.439497    -2.258584    -2.477932    2.141716    -2.333794    17.230694    0.000000    0.000000    0.000000    -4.445611    2.378481    -3.377058    4.927852    5.049954    1.527237    -0.470732    -5.940383    -8.510218    0.000000    0.000000    0.000000    
13.172785    97.970139    27.579731    -0.835916    0.914723    94.704842    0.127072    -1.466325    0.655955    1.095410    3.151638    0.624222    5.443234    9.552096    12.645900    -6.375847    -3.055724    11.759711    15.695545    -3.214351    -17.576645    -13.922620    -0.638933    7.904104    6.364127    -6.887417    -0.010390    0.828537    -6.861702    3.501488    -16.301189    3.190824    -21.237034    17.608473    -3.921046    3.164303    -6.535697    -2.365037    5.084237    -5.251767    -2.228949    3.362336    1.564473    5.247064    -5.241308    -5.425497    -2.275399    -2.466685    2.170129    -2.320073    17.219355    0.000000    0.000000    0.000000    -4.430381    2.358469    -3.389271    4.924712    5.089986    1.549307    -0.483100    -5.950555    -8.511286    0.000000    0.000000    0.000000    
13.149267    97.962677    27.596611    -0.875011    0.894370    94.702209    0.144126    -1.480845    0.649881    1.080293    3.142168    0.618471    5.433109    9.521283    12.597872    -6.316772    -3.063588    11.718083    15.660112    -3.225248    -17.556011    -13.931698    -0.668206    7.816246    6.364977    -6.882444    -0.036411    0.749429    -6.857943    3.464583    -16.308403    3.186598    -21.225819    17.646900    -3.901587    3.236537    -6.500138    -2.334165    5.109961    -5.229187    -2.191423    3.229657    1.587576    5.187634    -5.242803    -5.421294    -2.263903    -2.496678    2.164514    -2.358530    17.250532    0.000000    0.000000    0.000000    -4.400235    2.275632    -3.422042    4.915104    5.146056    1.564437    -0.522541    -5.970301    -8.509568    0.000000    0.000000    0.000000    
13.140472    97.962669    27.609819    -0.876733    0.889772    94.682312    0.157884    -1.493054    0.646214    1.047644    3.180240    0.615130    5.450824    9.500628    12.555983    -6.305802    -3.093771    11.672415    15.648863    -3.256943    -17.526335    -13.942178    -0.721341    7.727262    6.315751    -6.874647    -0.061821    0.776564    -6.848445    3.390900    -16.324041    3.143409    -21.188509    17.667545    -3.842733    3.271731    -6.405486    -2.275801    5.133467    -5.249586    -2.132894    3.149830    1.593353    5.184406    -5.265725    -5.416430    -2.271240    -2.457455    2.193237    -2.356943    17.258608    0.000000    0.000000    0.000000    -4.383362    2.235526    -3.440614    4.903425    5.206532    1.608205    -0.550351    -5.986670    -8.534520    0.000000    0.000000    0.000000    
13.131004    97.961014    27.623924    -0.867045    0.882590    94.665894    0.173277    -1.478329    0.645252    1.013997    3.187871    0.614848    5.460186    9.487836    12.521344    -6.281399    -3.110420    11.638212    15.612247    -3.269698    -17.514656    -13.908245    -0.772157    7.639861    6.258838    -6.847488    -0.066320    0.803425    -6.820560    3.351005    -16.319159    3.141015    -21.168493    17.696537    -3.798965    3.332775    -6.349467    -2.169893    5.135704    -5.122224    -2.028318    3.205204    1.602107    5.186033    -5.283582    -5.403540    -2.260333    -2.457235    2.198609    -2.376384    17.294073    0.000000    0.000000    0.000000    -4.368216    2.208973    -3.426971    4.910251    5.261182    1.663613    -0.603045    -5.996503    -8.596813    0.000000    0.000000    0.000000    
13.121378    97.957352    27.640108    -0.863075    0.871639    94.645264    0.183960    -1.487057    0.647683    0.990032    3.225566    0.617422    5.495348    9.457318    12.484159    -6.304383    -3.103130    11.592213    15.597081    -3.284028    -17.503620    -13.909385    -0.776753    7.544902    6.238091    -6.860178    -0.048552    0.637261    -6.839354    3.294685    -16.334766    3.121964    -21.132425    17.745302    -3.719864    3.367460    -6.314990    -2.123254    5.130559    -4.919132    -1.978743    3.226004    1.621990    5.177856    -5.307250    -5.406566    -2.235846    -2.468461    2.212718    -2.410250    17.345140    0.000000    0.000000    0.000000    -4.339994    2.172463    -3.414389    4.897047    5.318001    1.662567    -0.660044    -6.013615    -8.597916    0.000000    0.000000    0.000000    
13.129772    97.961487    27.651142    -0.799743    0.873918    94.621307    0.190638    -1.467770    0.651592    0.959167    3.312134    0.621483    5.498649    9.415281    12.456876    -6.279057    -3.133089    11.564006    15.601305    -3.326644    -17.491814    -13.925257    -0.787253    7.472152    6.166539    -6.964275    -0.070733    0.975773    -6.933968    3.136384    -16.341745    3.111662    -21.117603    17.806406    -3.597301    3.427983    -6.297000    -2.112325    5.108479    -4.764167    -1.966001    3.238938    1.622812    5.250696    -5.345347    -5.392106    -2.243245    -2.418005    2.189943    -2.413219    17.365093    0.000000    0.000000    0.000000    -4.328683    2.221487    -3.353688    4.897211    5.351204    1.721100    -0.672536    -6.008354    -8.695776    0.000000    0.000000    0.000000    
13.124260    97.955017    27.666155    -0.784739    0.866993    94.608597    0.182814    -1.466454    0.651565    0.964508    3.350213    0.621079    5.489221    9.373222    12.426970    -6.254241    -3.118357    11.536224    15.589734    -3.331737    -17.494799    -13.915212    -0.857370    7.417396    6.087530    -6.890536    -0.118189    0.886430    -6.860451    3.104181    -16.368238    3.111301    -21.095087    17.861404    -3.632616    3.500377    -6.225829    -2.043730    5.076949    -4.712759    -1.900357    3.226512    1.638785    5.252642    -5.369404    -5.391174    -2.215709    -2.451097    2.221031    -2.449182    17.424318    0.000000    0.000000    0.000000    -4.311502    2.208064    -3.311400    4.898875    5.399805    1.738441    -0.703615    -6.047754    -8.742627    0.000000    0.000000    0.000000    
13.119367    97.947151    27.681667    -0.769012    0.860927    94.593529    0.182754    -1.461842    0.653362    0.951286    3.381367    0.623023    5.460569    9.357701    12.379231    -6.192156    -3.150513    11.496139    15.587042    -3.337462    -17.525585    -13.935820    -0.839985    7.393499    6.071972    -6.765355    -0.117434    0.814818    -6.737556    3.060627    -16.381620    3.105619    -21.074629    17.932112    -3.502793    3.556443    -6.233772    -2.059769    5.050310    -4.588727    -1.914328    3.234529    1.653476    5.258198    -5.395006    -5.392071    -2.203082    -2.421299    2.243085    -2.477909    17.444208    0.000000    0.000000    0.000000    -4.295993    2.202446    -3.294040    4.898723    5.432055    1.759225    -0.729402    -6.076816    -8.770636    0.000000    0.000000    0.000000    
13.114722    97.939789    27.697056    -0.754774    0.857752    94.586006    0.163621    -1.460219    0.656339    0.955978    3.416599    0.625821    5.467807    9.346478    12.359807    -6.195743    -3.213715    11.470879    15.601222    -3.346355    -17.556091    -13.964775    -0.851675    7.363823    6.037204    -6.640555    -0.166819    0.862577    -6.608122    3.169072    -16.385290    3.125950    -21.055828    17.992785    -3.464249    3.605850    -6.217107    -2.009641    4.999403    -4.451495    -1.869699    3.386715    1.668428    5.263627    -5.405825    -5.396002    -2.187001    -2.457304    2.254338    -2.508661    17.492388    0.000000    0.000000    0.000000    -4.288653    2.199079    -3.269387    4.909947    5.459927    1.754505    -0.774688    -6.101215    -8.774264    0.000000    0.000000    0.000000    
13.111617    97.932358    27.712229    -0.729016    0.852375    94.583839    0.153341    -1.447442    0.657312    0.945823    3.457535    0.626813    5.472365    9.322616    12.316836    -6.172144    -3.253604    11.426394    15.627637    -3.345606    -17.571857    -14.005155    -0.851541    7.314338    6.045696    -6.521566    -0.176335    0.852129    -6.488474    3.225238    -16.359770    3.117243    -21.043676    18.025166    -3.419119    3.646453    -6.193029    -2.064644    5.018972    -4.379633    -1.919449    3.304250    1.689034    5.280378    -5.420627    -5.404920    -2.174323    -2.483114    2.292088    -2.526548    17.528481    0.000000    0.000000    0.000000    -4.277915    2.216713    -3.282227    4.915848    5.471390    1.747544    -0.776549    -6.121583    -8.741471    0.000000    0.000000    0.000000    
13.107655    97.924194    27.729788    -0.718179    0.841036    94.574326    0.136855    -1.441002    0.665846    0.952538    3.471923    0.635358    5.450731    9.292698    12.277344    -6.114385    -3.260121    11.394454    15.642785    -3.337408    -17.609699    -14.046512    -0.861231    7.285206    6.051808    -6.403720    -0.202358    0.942323    -6.366177    3.292264    -16.337034    3.119547    -21.027311    18.044382    -3.426204    3.668240    -6.164245    -2.008817    5.024442    -4.239906    -1.860251    3.297187    1.710221    5.287597    -5.397803    -5.402924    -2.169980    -2.513645    2.312453    -2.555228    17.533125    0.000000    0.000000    0.000000    -4.266234    2.213382    -3.286157    4.931845    5.497860    1.782855    -0.832596    -6.142692    -8.751832    0.000000    0.000000    0.000000    
13.103888    97.921356    27.748838    -0.687187    0.802270    94.550209    0.161700    -1.414537    0.668621    0.962977    3.495606    0.637311    5.377709    9.216917    12.264341    -6.030364    -3.219987    11.398093    15.618026    -3.348236    -17.596708    -14.052177    -0.843226    7.248699    6.024703    -6.372478    -0.263536    1.188828    -6.323554    3.407645    -16.344120    3.110986    -21.020624    18.072666    -3.418237    3.725094    -6.092618    -2.035048    5.044410    -4.456650    -1.890823    3.194654    1.764599    5.320190    -5.376073    -5.412885    -2.182065    -2.513233    2.321836    -2.576060    17.539322    0.000000    0.000000    0.000000    -4.220511    2.232462    -3.266943    4.943682    5.501032    1.802390    -0.818311    -6.119603    -8.771786    0.000000    0.000000    0.000000    
13.100979    97.915634    27.763227    -0.671664    0.791392    94.549034    0.156421    -1.400354    0.668316    0.958505    3.502729    0.637135    5.369388    9.183782    12.233936    -6.009493    -3.201134    11.369761    15.628002    -3.348690    -17.606014    -14.090622    -0.818570    7.204671    6.075040    -6.314779    -0.278036    0.952484    -6.270330    3.603501    -16.330244    3.104972    -21.001469    18.095957    -3.440130    3.753705    -6.056458    -1.976178    5.027127    -4.297111    -1.833577    3.288325    1.781223    5.333762    -5.353445    -5.401581    -2.183736    -2.529255    2.330073    -2.588899    17.521225    0.000000    0.000000    0.000000    -4.208519    2.242370    -3.285694    4.957625    5.510046    1.840429    -0.846601    -6.130399    -8.791659    0.000000    0.000000    0.000000    
